<svg width="14" height="8" viewBox="0 0 14 8" fill="none" xmlns="http://www.w3.org/2000/svg">
<path d="M7.00025 8.00155C6.82477 8.00256 6.65082 7.96893 6.48837 7.90258C6.32592 7.83622 6.17817 7.73846 6.05358 7.61488L0.720247 2.28155C0.469176 2.03048 0.328125 1.68995 0.328125 1.33488C0.328125 0.979813 0.469176 0.639287 0.720247 0.388215C0.971319 0.137144 1.31185 -0.00390625 1.66691 -0.00390625C2.02198 -0.00390625 2.36251 0.137144 2.61358 0.388215L7.00025 4.78822L11.3869 0.388215C11.638 0.137144 11.9785 -0.00390625 12.3336 -0.00390625C12.6886 -0.00390625 13.0292 0.137144 13.2802 0.388215C13.5313 0.639287 13.6724 0.979813 13.6724 1.33488C13.6724 1.68995 13.5313 2.03048 13.2802 2.28155L7.94691 7.61488C7.82233 7.73846 7.67457 7.83622 7.51212 7.90258C7.34967 7.96893 7.17572 8.00256 7.00025 8.00155Z" fill="#FF9801"/>
</svg>
